<svg xmlns="http://www.w3.org/2000/svg" width="142.977" height="22.375" viewBox="0 0 142.977 22.375">
  <path id="Path_4339" data-name="Path 4339" d="M19.243-92.486H11.7v-4.859l3.612-4.155H.256l4.539,4.155V-83.28L0-79.125H15.279L11.7-83.312v-5.466h7.544v5.5L15.6-79.125H30.91L26.147-83.28V-97.345l4.539-4.155H15.631l3.612,4.155Zm30.078,9.238-4.443,4.123H61.627L56.737-83.28,50.7-97.345l4.059-4.155H37.111l4.571,4.155L36.088-83.28l-4.859,4.155H44.558L40.691-83.28l.735-2.014H48.49Zm-2.206-5.37H42.672l2.142-5.754Zm42.8,9.493-3.069-3.2c-.7-2.365-1.47-6.233-4.571-7.416,2.014-.575,5.21-1.95,5.21-5.242,0-4.155-4-6.521-9.206-6.521H62.267l4.571,4.187V-83.28l-4.891,4.155H78.5L73.742-83.28v-5.242h2.845c3.228,0,3.8,6.84,4.379,9.4ZM80.262-95.171c0,2.749-1.119,3.356-2.845,3.356H73.742V-98.3H77.1C78.76-98.3,80.262-97.728,80.262-95.171Zm35.512,1.438c0-4.475-4.155-7.767-8.886-7.767H90.555l4.571,4.155V-83.28l-4.891,4.155h16.59l-4.795-4.187v-3.452h4.635C111.172-86.764,115.775-88.522,115.775-93.733Zm-7.256-.511c0,3.452-1.151,4.219-3.26,4.219H102.03V-98.3h2.941C107.081-98.3,108.519-97.185,108.519-94.244Zm22.151,11-4.443,4.123h16.749l-4.891-4.155-6.041-14.064L136.1-101.5H118.46l4.571,4.155L117.437-83.28l-4.859,4.155h13.329L122.04-83.28l.735-2.014h7.064Zm-2.206-5.37h-4.443l2.142-5.754Z" transform="translate(0 101.5)"/>
</svg>
