<svg xmlns="http://www.w3.org/2000/svg" width="15.997" height="13.815" viewBox="0 0 15.997 13.815">
  <path id="Path_12" data-name="Path 12" d="M944.643-92.609c.314-.3.584-.593.89-.843a4.18,4.18,0,0,1,4.3-.758,4.079,4.079,0,0,1,2.762,3.335,4.076,4.076,0,0,1-1.136,3.655c-.857.9-1.753,1.755-2.632,2.629l-3.662,3.639a.6.6,0,0,1-1,.006q-3.094-3.074-6.187-6.15a4.284,4.284,0,0,1,.039-6.22,4.347,4.347,0,0,1,5.952.021C944.2-93.078,944.412-92.845,944.643-92.609Zm.035,10.551c.06-.068.1-.123.155-.173l2.853-2.836c.985-.979,1.981-1.946,2.949-2.941a2.965,2.965,0,0,0,.828-2.743,3,3,0,0,0-2.175-2.444,3.088,3.088,0,0,0-3.208.781c-.323.306-.632.627-.948.939a.584.584,0,0,1-.931,0c-.342-.338-.676-.683-1.025-1.013a3.2,3.2,0,0,0-4.726.389,3.141,3.141,0,0,0,.321,4.172q2.881,2.87,5.769,5.734C944.575-82.151,944.614-82.116,944.678-82.058Z" transform="translate(-936.664 94.499)"/>
</svg>
