<svg xmlns="http://www.w3.org/2000/svg" width="16.299" height="17.305" viewBox="0 0 16.299 17.305">
  <path id="Union_1" data-name="Union 1" d="M3.245,17a3.2,3.2,0,0,1-3.186-2.53A3.766,3.766,0,0,1,0,13.737c0-2.334,0-4.707,0-7V5.517C0,4.836.257,4.6.982,4.6H2.409c.541,0,.956,0,1.347.005A4.7,4.7,0,0,1,4.05,2.564,4.277,4.277,0,0,1,7.969,0c.13,0,.26.006.388.018a4.176,4.176,0,0,1,3.826,3.344A5.5,5.5,0,0,1,12.24,4.6h.015c.419,0,.873-.005,1.428-.005h1.43c.594,0,.884.276.884.84q0,.933,0,1.867c0,2.148,0,4.368,0,6.552a3.07,3.07,0,0,1-.954,2.253A3.469,3.469,0,0,1,12.655,17q-1.658,0-3.315,0H7.9L5.12,17C4.394,17,3.8,17,3.245,17ZM1.5,6.029c0,.009,0,.019,0,.032.005,1.838.005,3.706.005,5.513v2.233a1.7,1.7,0,0,0,1.856,1.755h7.433c.744,0,1.354,0,1.921,0a1.7,1.7,0,0,0,1.759-1.415,1.526,1.526,0,0,0,.019-.263q0-2.281,0-4.563,0-1.641,0-3.282V6.029c-.327,0-.675.007-1.062.007-.408,0-.811,0-1.188-.005.008.321,0,.646,0,.96v.024a.749.749,0,0,1-.754.8h-.017a.743.743,0,0,1-.741-.793c0-.313-.007-.649,0-.988l-2.722,0-2.745,0c.007.329.007.669,0,1.014a.737.737,0,0,1-.752.767H4.489a.742.742,0,0,1-.735-.77c0-.313-.01-.666,0-1.011-.4.005-.769.007-1.129.007s-.74,0-1.087-.007H1.5ZM5.668,2.677a3.09,3.09,0,0,0-.407,1.851c0,.034,0,.057,0,.073h.054c.351-.007.738-.01,1.214-.01L8,4.6H9.4c.536,0,.949,0,1.335.005-.008-.128-.006-.254-.005-.377,0-.1,0-.186,0-.276A2.612,2.612,0,0,0,8.7,1.526a2.777,2.777,0,0,0-.69-.087A2.812,2.812,0,0,0,5.668,2.677Z" transform="translate(0.15 0.15)" stroke="#fff" stroke-width="0.3"/>
</svg>
