<svg xmlns="http://www.w3.org/2000/svg" width="13.002" height="13" viewBox="0 0 13.002 13">
  <path id="Union_3" data-name="Union 3" d="M12.329,13l-.033-.024c-.029-.02-.059-.039-.09-.058a1.278,1.278,0,0,1-.217-.16c-.795-.778-1.6-1.571-2.38-2.338l-.752-.74L8.85,9.673l-.011.008a5.391,5.391,0,0,1-2.379,1.041,6.052,6.052,0,0,1-1.013.088,5.341,5.341,0,0,1-2.7-.727A5.38,5.38,0,0,1,.267,7.071a4.913,4.913,0,0,1-.245-1.21.28.28,0,0,0-.009-.04C.01,5.809.006,5.8,0,5.786l0-.015L0,5.04c.01-.066.02-.133.029-.2C.051,4.7.072,4.547.1,4.4A5.151,5.151,0,0,1,1.034,2.26,5.357,5.357,0,0,1,4.125.179,6.136,6.136,0,0,1,5.564,0,5.359,5.359,0,0,1,8.982,1.248a5.156,5.156,0,0,1,1.967,3.616,5.191,5.191,0,0,1-.9,3.538c-.1.146-.208.285-.322.431l-.082.107.011.01c.915.9,1.883,1.851,3.138,3.086a.519.519,0,0,1,.118.712.746.746,0,0,1-.205.173c-.028.019-.055.036-.078.053L12.588,13ZM3.194,1.725A4.149,4.149,0,0,0,1.085,5.252,4.51,4.51,0,0,0,1.437,7.1,4.315,4.315,0,0,0,4.988,9.7a4.694,4.694,0,0,0,.583.037h0a4.137,4.137,0,0,0,2.572-.887,4.129,4.129,0,0,0,1.7-4.018A4.053,4.053,0,0,0,7.583,1.607a4.525,4.525,0,0,0-2.108-.552A4.407,4.407,0,0,0,3.194,1.725Z"/>
</svg>
